<?xml version="1.0" encoding="utf-8"?>
<!-- Generator: Adobe Illustrator 25.4.1, SVG Export Plug-In . SVG Version: 6.00 Build 0)  -->
<svg version="1.1" id="レイヤー_1" xmlns="http://www.w3.org/2000/svg" xmlns:xlink="http://www.w3.org/1999/xlink" x="0px"
	 y="0px" viewBox="0 0 512 512" style="enable-background:new 0 0 512 512;" xml:space="preserve">
<style type="text/css">
	.st0{fill:#FFFFFF;}
</style>
<path class="st0" d="M360,244c-64,0-116,52-116,116s52,116,116,116s116-52,116-116S424,244,360,244z M411.5,372.9H360
	c-7.1,0-12.9-5.8-12.9-12.9v-51.6c0-7.1,5.8-12.9,12.9-12.9s12.9,5.8,12.9,12.9v38.7h38.7c7.1,0,12.9,5.8,12.9,12.9
	S418.7,372.9,411.5,372.9z"/>
<path class="st0" d="M449.4,75.5c0-7.2-5.7-12.9-12.9-12.9H372v38.7c0,7.2-5.7,12.9-12.9,12.9s-12.9-5.7-12.9-12.9V62.6h-51.6v38.7
	c0,7.2-5.7,12.9-12.9,12.9s-12.9-5.7-12.9-12.9V62.6h-51.6v38.7c0,7.2-5.7,12.9-12.9,12.9s-12.9-5.7-12.9-12.9V62.6H140v38.7
	c0,7.2-5.7,12.9-12.9,12.9s-12.9-5.7-12.9-12.9V62.6H48.9c-7.2,0-12.9,5.7-12.9,12.9V140h413.4V75.5z"/>
<path class="st0" d="M230.2,294.7h3.1c4.7-9.1,10-17.9,16.5-25.8h-19.6c-7.1,0-12.9-5.8-12.9-12.9s5.8-12.9,12.9-12.9H256
	c5.3,0,9.8,3.2,11.8,7.7c24.7-20.9,56.6-33.5,91.3-33.5h-25.8c-7.1,0-12.9-5.8-12.9-12.9s5.8-12.9,12.9-12.9h25.8
	c7.1,0,12.9,5.8,12.9,12.9s-5.8,12.9-12.9,12.9c34.3,0,65.7,12.2,90.2,32.5v-84.1H36v244.9c0,7.1,5.8,12.9,12.9,12.9H233
	c-9.9-19.4-15.7-41.2-15.7-64.5c0-14.2,2.5-27.7,6.4-40.6c-3.8-2.2-6.4-6.2-6.4-10.9C217.3,300.4,223.1,294.7,230.2,294.7z
	 M230.2,191.5H256c7.1,0,12.9,5.8,12.9,12.9s-5.8,12.9-12.9,12.9h-25.8c-7.1,0-12.9-5.8-12.9-12.9S223.1,191.5,230.2,191.5z
	 M152.9,372h-25.8c-7.1,0-12.9-5.8-12.9-12.9s5.8-12.9,12.9-12.9h25.8c7.1,0,12.9,5.8,12.9,12.9S160,372,152.9,372z M152.9,320.5
	h-25.8c-7.1,0-12.9-5.8-12.9-12.9s5.8-12.9,12.9-12.9h25.8c7.1,0,12.9,5.8,12.9,12.9S160,320.5,152.9,320.5z M152.9,268.9h-25.8
	c-7.1,0-12.9-5.8-12.9-12.9s5.8-12.9,12.9-12.9h25.8c7.1,0,12.9,5.8,12.9,12.9S160,268.9,152.9,268.9z M152.9,217.3h-25.8
	c-7.1,0-12.9-5.8-12.9-12.9s5.8-12.9,12.9-12.9h25.8c7.1,0,12.9,5.8,12.9,12.9S160,217.3,152.9,217.3z"/>
<path class="st0" d="M140,48.9c0-7.2-5.7-12.9-12.9-12.9s-12.9,5.7-12.9,12.9v13.8H140V48.9z"/>
<path class="st0" d="M217.3,48.9c0-7.2-5.7-12.9-12.9-12.9s-12.9,5.7-12.9,12.9v13.8h25.8V48.9z"/>
<path class="st0" d="M294.7,48.9c0-7.2-5.7-12.9-12.9-12.9s-12.9,5.7-12.9,12.9v13.8h25.8V48.9z"/>
<path class="st0" d="M372,48.9c0-7.2-5.7-12.9-12.9-12.9s-12.9,5.7-12.9,12.9v13.8H372V48.9z"/>
</svg>
